No personal conf_private.py found.
doodad not detected
2022-04-16 10:55:54.513242 EDT | Variant:
2022-04-16 10:55:54.513523 EDT | {
  "seed": 1,
  "algorithm": "DIAYN",
  "env_name": "AntEnv",
  "algo_kwargs": {
    "batch_size": 256,
    "num_epochs": 100,
    "num_eval_steps_per_epoch": 25000,
    "num_expl_steps_per_train_loop": "None",
    "num_trains_per_train_loop": 100,
    "min_num_steps_before_training": 1000,
    "max_path_length": 1000,
    "num_train_loops_per_epoch": 1
  },
  "trainer_kwargs": {
    "discount": "None",
    "soft_target_tau": 0.005,
    "target_update_period": 1,
    "policy_lr": "None",
    "qf_lr": "None",
    "reward_scale": 1,
    "use_automatic_entropy_tuning": true
  },
  "replay_buffer_kwargs": {
    "max_replay_buffer_size": "None",
    "latent_dim": 1,
    "approx_irl": true,
    "plot": true
  },
  "relabeler_kwargs": {
    "relabel": true,
    "use_adv": true,
    "n_sampled_latents": 5,
    "n_to_take": 1,
    "cache": true
  },
  "qf_kwargs": {
    "hidden_sizes": [
      256,
      256
    ],
    "latent_shape_multiplier": 1,
    "latent_to_all_layers": true
  },
  "policy_kwargs": {
    "hidden_sizes": [
      256,
      256
    ],
    "latent_shape_multiplier": 1,
    "latent_to_all_layers": true
  },
  "path_collector_kwargs": {
    "save_videos": true
  },
  "use_advantages": true,
  "proper_advantages": true,
  "plot": true,
  "test": true,
  "gpu": 0,
  "mode": "here_no_doodad",
  "local_docker": false,
  "insert_time": true,
  "latent_shape_multiplier": 1,
  "env_kwargs": {
    "use_xy": true,
    "contact_forces": true
  },
  "gpu_id": 0
}
OpenCV: FFMPEG: tag 0x44495658/'XVID' is not supported with codec id 12 and format 'mp4 / MP4 (MPEG-4 Part 14)'
OpenCV: FFMPEG: fallback to use tag 0x7634706d/'mp4v'
ffmpeg version 4.2.4-1ubuntu0.1 Copyright (c) 2000-2020 the FFmpeg developers
  built with gcc 9 (Ubuntu 9.3.0-10ubuntu2)
  configuration: --prefix=/usr --extra-version=1ubuntu0.1 --toolchain=hardened --libdir=/usr/lib/x86_64-linux-gnu --incdir=/usr/include/x86_64-linux-gnu --arch=amd64 --enable-gpl --disable-stripping --enable-avresample --disable-filter=resample --enable-avisynth --enable-gnutls --enable-ladspa --enable-libaom --enable-libass --enable-libbluray --enable-libbs2b --enable-libcaca --enable-libcdio --enable-libcodec2 --enable-libflite --enable-libfontconfig --enable-libfreetype --enable-libfribidi --enable-libgme --enable-libgsm --enable-libjack --enable-libmp3lame --enable-libmysofa --enable-libopenjpeg --enable-libopenmpt --enable-libopus --enable-libpulse --enable-librsvg --enable-librubberband --enable-libshine --enable-libsnappy --enable-libsoxr --enable-libspeex --enable-libssh --enable-libtheora --enable-libtwolame --enable-libvidstab --enable-libvorbis --enable-libvpx --enable-libwavpack --enable-libwebp --enable-libx265 --enable-libxml2 --enable-libxvid --enable-libzmq --enable-libzvbi --enable-lv2 --enable-omx --enable-openal --enable-opencl --enable-opengl --enable-sdl2 --enable-libdc1394 --enable-libdrm --enable-libiec61883 --enable-nvenc --enable-chromaprint --enable-frei0r --enable-libx264 --enable-shared
  libavutil      56. 31.100 / 56. 31.100
  libavcodec     58. 54.100 / 58. 54.100
  libavformat    58. 29.100 / 58. 29.100
  libavdevice    58.  8.100 / 58.  8.100
  libavfilter     7. 57.100 /  7. 57.100
  libavresample   4.  0.  0 /  4.  0.  0
  libswscale      5.  5.100 /  5.  5.100
  libswresample   3.  5.100 /  3.  5.100
  libpostproc    55.  5.100 / 55.  5.100
Input #0, mov,mp4,m4a,3gp,3g2,mj2, from '/home/yb1025/Research/GRAIL/relabeler-irl/accelerate-skillDiscovery/generalized-hindsight/rlkit/../data/None-None-test/None-None-test_2022_04_16_10_55_54_0000--s-1/epoch0_0_temp.mp4':
  Metadata:
    major_brand     : isom
    minor_version   : 512
    compatible_brands: isomiso2mp41
    encoder         : Lavf58.76.100
  Duration: 00:00:13.92, start: 0.000000, bitrate: 987 kb/s
    Stream #0:0(und): Video: mpeg4 (Simple Profile) (mp4v / 0x7634706D), yuv420p, 500x500 [SAR 1:1 DAR 1:1], 986 kb/s, 24 fps, 24 tbr, 12288 tbn, 24 tbc (default)
    Metadata:
      handler_name    : VideoHandler
Stream mapping:
  Stream #0:0 -> #0:0 (mpeg4 (native) -> h264 (libx264))
Press [q] to stop, [?] for help
[libx264 @ 0x5570c1d55ac0] using SAR=1/1
[libx264 @ 0x5570c1d55ac0] using cpu capabilities: MMX2 SSE2Fast SSSE3 SSE4.2 AVX FMA3 BMI2 AVX2 AVX512
[libx264 @ 0x5570c1d55ac0] profile High, level 3.0
[libx264 @ 0x5570c1d55ac0] 264 - core 155 r2917 0a84d98 - H.264/MPEG-4 AVC codec - Copyleft 2003-2018 - http://www.videolan.org/x264.html - options: cabac=1 ref=3 deblock=1:0:0 analyse=0x3:0x113 me=hex subme=7 psy=1 psy_rd=1.00:0.00 mixed_ref=1 me_range=16 chroma_me=1 trellis=1 8x8dct=1 cqm=0 deadzone=21,11 fast_pskip=1 chroma_qp_offset=-2 threads=3 lookahead_threads=1 sliced_threads=0 nr=0 decimate=1 interlaced=0 bluray_compat=0 constrained_intra=0 bframes=3 b_pyramid=2 b_adapt=1 b_bias=0 direct=1 weightb=1 open_gop=0 weightp=2 keyint=250 keyint_min=24 scenecut=40 intra_refresh=0 rc_lookahead=40 rc=crf mbtree=1 crf=20.0 qcomp=0.60 qpmin=0 qpmax=69 qpstep=4 ip_ratio=1.40 aq=1:1.00
Output #0, mp4, to '/home/yb1025/Research/GRAIL/relabeler-irl/accelerate-skillDiscovery/generalized-hindsight/rlkit/../data/None-None-test/None-None-test_2022_04_16_10_55_54_0000--s-1/epoch0_0.mp4':
  Metadata:
    major_brand     : isom
    minor_version   : 512
    compatible_brands: isomiso2mp41
    encoder         : Lavf58.29.100
    Stream #0:0(und): Video: h264 (libx264) (avc1 / 0x31637661), yuv420p, 500x500 [SAR 1:1 DAR 1:1], q=-1--1, 24 fps, 12288 tbn, 24 tbc (default)
    Metadata:
      handler_name    : VideoHandler
      encoder         : Lavc58.54.100 libx264
    Side data:
      cpb: bitrate max/min/avg: 0/0/0 buffer size: 0 vbv_delay: -1
frame=  206 fps=0.0 q=25.0 size=       0kB time=00:00:06.50 bitrate=   0.1kbits/s speed=12.9x    frame=  334 fps=0.0 q=-1.0 Lsize=     126kB time=00:00:13.79 bitrate=  75.1kbits/s speed=15.7x    
video:122kB audio:0kB subtitle:0kB other streams:0kB global headers:0kB muxing overhead: 3.891082%
[libx264 @ 0x5570c1d55ac0] frame I:2     Avg QP:17.64  size: 33326
[libx264 @ 0x5570c1d55ac0] frame P:84    Avg QP:21.40  size:   444
[libx264 @ 0x5570c1d55ac0] frame B:248   Avg QP:27.34  size:    81
[libx264 @ 0x5570c1d55ac0] consecutive B-frames:  0.6%  0.6%  1.8% 97.0%
[libx264 @ 0x5570c1d55ac0] mb I  I16..4: 32.3% 16.4% 51.3%
[libx264 @ 0x5570c1d55ac0] mb P  I16..4:  0.4%  0.1%  0.1%  P16..4:  2.5%  0.1%  0.2%  0.0%  0.0%    skip:96.4%
[libx264 @ 0x5570c1d55ac0] mb B  I16..4:  0.8%  0.1%  0.0%  B16..8:  3.0%  0.2%  0.0%  direct: 0.0%  skip:95.9%  L0:55.2% L1:44.7% BI: 0.1%
[libx264 @ 0x5570c1d55ac0] 8x8 transform intra:12.2% inter:74.6%
[libx264 @ 0x5570c1d55ac0] coded y,uvDC,uvAC intra: 19.2% 40.8% 24.4% inter: 0.3% 0.5% 0.2%
[libx264 @ 0x5570c1d55ac0] i16 v,h,dc,p: 43% 50%  6%  0%
[libx264 @ 0x5570c1d55ac0] i8 v,h,dc,ddl,ddr,vr,hd,vl,hu: 19% 12% 55%  3%  1%  2%  1%  3%  3%
[libx264 @ 0x5570c1d55ac0] i4 v,h,dc,ddl,ddr,vr,hd,vl,hu: 28% 43% 10%  2%  2%  5%  2%  5%  2%
[libx264 @ 0x5570c1d55ac0] i8c dc,h,v,p: 31% 49% 17%  3%
[libx264 @ 0x5570c1d55ac0] Weighted P-Frames: Y:0.0% UV:0.0%
[libx264 @ 0x5570c1d55ac0] ref P L0: 82.6%  2.5% 12.1%  2.7%
[libx264 @ 0x5570c1d55ac0] ref B L0: 50.4% 47.9%  1.7%
[libx264 @ 0x5570c1d55ac0] ref B L1: 96.1%  3.9%
[libx264 @ 0x5570c1d55ac0] kb/s:71.26
OpenCV: FFMPEG: tag 0x44495658/'XVID' is not supported with codec id 12 and format 'mp4 / MP4 (MPEG-4 Part 14)'
OpenCV: FFMPEG: fallback to use tag 0x7634706d/'mp4v'
ffmpeg version 4.2.4-1ubuntu0.1 Copyright (c) 2000-2020 the FFmpeg developers
  built with gcc 9 (Ubuntu 9.3.0-10ubuntu2)
  configuration: --prefix=/usr --extra-version=1ubuntu0.1 --toolchain=hardened --libdir=/usr/lib/x86_64-linux-gnu --incdir=/usr/include/x86_64-linux-gnu --arch=amd64 --enable-gpl --disable-stripping --enable-avresample --disable-filter=resample --enable-avisynth --enable-gnutls --enable-ladspa --enable-libaom --enable-libass --enable-libbluray --enable-libbs2b --enable-libcaca --enable-libcdio --enable-libcodec2 --enable-libflite --enable-libfontconfig --enable-libfreetype --enable-libfribidi --enable-libgme --enable-libgsm --enable-libjack --enable-libmp3lame --enable-libmysofa --enable-libopenjpeg --enable-libopenmpt --enable-libopus --enable-libpulse --enable-librsvg --enable-librubberband --enable-libshine --enable-libsnappy --enable-libsoxr --enable-libspeex --enable-libssh --enable-libtheora --enable-libtwolame --enable-libvidstab --enable-libvorbis --enable-libvpx --enable-libwavpack --enable-libwebp --enable-libx265 --enable-libxml2 --enable-libxvid --enable-libzmq --enable-libzvbi --enable-lv2 --enable-omx --enable-openal --enable-opencl --enable-opengl --enable-sdl2 --enable-libdc1394 --enable-libdrm --enable-libiec61883 --enable-nvenc --enable-chromaprint --enable-frei0r --enable-libx264 --enable-shared
  libavutil      56. 31.100 / 56. 31.100
  libavcodec     58. 54.100 / 58. 54.100
  libavformat    58. 29.100 / 58. 29.100
  libavdevice    58.  8.100 / 58.  8.100
  libavfilter     7. 57.100 /  7. 57.100
  libavresample   4.  0.  0 /  4.  0.  0
  libswscale      5.  5.100 /  5.  5.100
  libswresample   3.  5.100 /  3.  5.100
  libpostproc    55.  5.100 / 55.  5.100
Input #0, mov,mp4,m4a,3gp,3g2,mj2, from '/home/yb1025/Research/GRAIL/relabeler-irl/accelerate-skillDiscovery/generalized-hindsight/rlkit/../data/None-None-test/None-None-test_2022_04_16_10_55_54_0000--s-1/epoch0_1_temp.mp4':
  Metadata:
    major_brand     : isom
    minor_version   : 512
    compatible_brands: isomiso2mp41
    encoder         : Lavf58.76.100
  Duration: 00:00:13.92, start: 0.000000, bitrate: 985 kb/s
    Stream #0:0(und): Video: mpeg4 (Simple Profile) (mp4v / 0x7634706D), yuv420p, 500x500 [SAR 1:1 DAR 1:1], 984 kb/s, 24 fps, 24 tbr, 12288 tbn, 24 tbc (default)
    Metadata:
      handler_name    : VideoHandler
Stream mapping:
  Stream #0:0 -> #0:0 (mpeg4 (native) -> h264 (libx264))
Press [q] to stop, [?] for help
[libx264 @ 0x5617d2496a40] using SAR=1/1
[libx264 @ 0x5617d2496a40] using cpu capabilities: MMX2 SSE2Fast SSSE3 SSE4.2 AVX FMA3 BMI2 AVX2 AVX512
[libx264 @ 0x5617d2496a40] profile High, level 3.0
[libx264 @ 0x5617d2496a40] 264 - core 155 r2917 0a84d98 - H.264/MPEG-4 AVC codec - Copyleft 2003-2018 - http://www.videolan.org/x264.html - options: cabac=1 ref=3 deblock=1:0:0 analyse=0x3:0x113 me=hex subme=7 psy=1 psy_rd=1.00:0.00 mixed_ref=1 me_range=16 chroma_me=1 trellis=1 8x8dct=1 cqm=0 deadzone=21,11 fast_pskip=1 chroma_qp_offset=-2 threads=3 lookahead_threads=1 sliced_threads=0 nr=0 decimate=1 interlaced=0 bluray_compat=0 constrained_intra=0 bframes=3 b_pyramid=2 b_adapt=1 b_bias=0 direct=1 weightb=1 open_gop=0 weightp=2 keyint=250 keyint_min=24 scenecut=40 intra_refresh=0 rc_lookahead=40 rc=crf mbtree=1 crf=20.0 qcomp=0.60 qpmin=0 qpmax=69 qpstep=4 ip_ratio=1.40 aq=1:1.00
Output #0, mp4, to '/home/yb1025/Research/GRAIL/relabeler-irl/accelerate-skillDiscovery/generalized-hindsight/rlkit/../data/None-None-test/None-None-test_2022_04_16_10_55_54_0000--s-1/epoch0_1.mp4':
  Metadata:
    major_brand     : isom
    minor_version   : 512
    compatible_brands: isomiso2mp41
    encoder         : Lavf58.29.100
    Stream #0:0(und): Video: h264 (libx264) (avc1 / 0x31637661), yuv420p, 500x500 [SAR 1:1 DAR 1:1], q=-1--1, 24 fps, 12288 tbn, 24 tbc (default)
    Metadata:
      handler_name    : VideoHandler
      encoder         : Lavc58.54.100 libx264
    Side data:
      cpb: bitrate max/min/avg: 0/0/0 buffer size: 0 vbv_delay: -1
frame=  207 fps=0.0 q=25.0 size=       0kB time=00:00:06.54 bitrate=   0.1kbits/s speed=  13x    frame=  334 fps=0.0 q=-1.0 Lsize=     133kB time=00:00:13.79 bitrate=  79.1kbits/s speed=15.2x    
video:128kB audio:0kB subtitle:0kB other streams:0kB global headers:0kB muxing overhead: 3.688774%
[libx264 @ 0x5617d2496a40] frame I:2     Avg QP:17.61  size: 33270
[libx264 @ 0x5617d2496a40] frame P:84    Avg QP:22.70  size:   482
[libx264 @ 0x5617d2496a40] frame B:248   Avg QP:25.82  size:    96
[libx264 @ 0x5617d2496a40] consecutive B-frames:  0.9%  0.0%  0.9% 98.2%
[libx264 @ 0x5617d2496a40] mb I  I16..4: 32.8% 15.6% 51.6%
[libx264 @ 0x5617d2496a40] mb P  I16..4:  0.7%  0.4%  0.1%  P16..4:  2.5%  0.2%  0.2%  0.0%  0.0%    skip:95.9%
[libx264 @ 0x5617d2496a40] mb B  I16..4:  0.9%  0.6%  0.0%  B16..8:  3.0%  0.1%  0.0%  direct: 0.0%  skip:95.4%  L0:56.9% L1:42.7% BI: 0.4%
[libx264 @ 0x5617d2496a40] 8x8 transform intra:32.4% inter:74.5%
[libx264 @ 0x5617d2496a40] coded y,uvDC,uvAC intra: 13.6% 37.1% 17.9% inter: 0.3% 0.5% 0.2%
[libx264 @ 0x5617d2496a40] i16 v,h,dc,p: 20% 74%  6%  0%
[libx264 @ 0x5617d2496a40] i8 v,h,dc,ddl,ddr,vr,hd,vl,hu:  5% 14% 78%  1%  0%  1%  0%  1%  1%
[libx264 @ 0x5617d2496a40] i4 v,h,dc,ddl,ddr,vr,hd,vl,hu: 29% 42% 10%  2%  2%  6%  2%  5%  2%
[libx264 @ 0x5617d2496a40] i8c dc,h,v,p: 28% 59% 11%  3%
[libx264 @ 0x5617d2496a40] Weighted P-Frames: Y:0.0% UV:0.0%
[libx264 @ 0x5617d2496a40] ref P L0: 79.1%  2.8% 14.6%  3.5%
[libx264 @ 0x5617d2496a40] ref B L0: 58.7% 39.9%  1.4%
[libx264 @ 0x5617d2496a40] ref B L1: 97.0%  3.0%
[libx264 @ 0x5617d2496a40] kb/s:75.19
OpenCV: FFMPEG: tag 0x44495658/'XVID' is not supported with codec id 12 and format 'mp4 / MP4 (MPEG-4 Part 14)'
OpenCV: FFMPEG: fallback to use tag 0x7634706d/'mp4v'
ffmpeg version 4.2.4-1ubuntu0.1 Copyright (c) 2000-2020 the FFmpeg developers
  built with gcc 9 (Ubuntu 9.3.0-10ubuntu2)
  configuration: --prefix=/usr --extra-version=1ubuntu0.1 --toolchain=hardened --libdir=/usr/lib/x86_64-linux-gnu --incdir=/usr/include/x86_64-linux-gnu --arch=amd64 --enable-gpl --disable-stripping --enable-avresample --disable-filter=resample --enable-avisynth --enable-gnutls --enable-ladspa --enable-libaom --enable-libass --enable-libbluray --enable-libbs2b --enable-libcaca --enable-libcdio --enable-libcodec2 --enable-libflite --enable-libfontconfig --enable-libfreetype --enable-libfribidi --enable-libgme --enable-libgsm --enable-libjack --enable-libmp3lame --enable-libmysofa --enable-libopenjpeg --enable-libopenmpt --enable-libopus --enable-libpulse --enable-librsvg --enable-librubberband --enable-libshine --enable-libsnappy --enable-libsoxr --enable-libspeex --enable-libssh --enable-libtheora --enable-libtwolame --enable-libvidstab --enable-libvorbis --enable-libvpx --enable-libwavpack --enable-libwebp --enable-libx265 --enable-libxml2 --enable-libxvid --enable-libzmq --enable-libzvbi --enable-lv2 --enable-omx --enable-openal --enable-opencl --enable-opengl --enable-sdl2 --enable-libdc1394 --enable-libdrm --enable-libiec61883 --enable-nvenc --enable-chromaprint --enable-frei0r --enable-libx264 --enable-shared
  libavutil      56. 31.100 / 56. 31.100
  libavcodec     58. 54.100 / 58. 54.100
  libavformat    58. 29.100 / 58. 29.100
  libavdevice    58.  8.100 / 58.  8.100
  libavfilter     7. 57.100 /  7. 57.100
  libavresample   4.  0.  0 /  4.  0.  0
  libswscale      5.  5.100 /  5.  5.100
  libswresample   3.  5.100 /  3.  5.100
  libpostproc    55.  5.100 / 55.  5.100
Input #0, mov,mp4,m4a,3gp,3g2,mj2, from '/home/yb1025/Research/GRAIL/relabeler-irl/accelerate-skillDiscovery/generalized-hindsight/rlkit/../data/None-None-test/None-None-test_2022_04_16_10_55_54_0000--s-1/epoch0_2_temp.mp4':
  Metadata:
    major_brand     : isom
    minor_version   : 512
    compatible_brands: isomiso2mp41
    encoder         : Lavf58.76.100
  Duration: 00:00:13.92, start: 0.000000, bitrate: 985 kb/s
    Stream #0:0(und): Video: mpeg4 (Simple Profile) (mp4v / 0x7634706D), yuv420p, 500x500 [SAR 1:1 DAR 1:1], 984 kb/s, 24 fps, 24 tbr, 12288 tbn, 24 tbc (default)
    Metadata:
      handler_name    : VideoHandler
Stream mapping:
  Stream #0:0 -> #0:0 (mpeg4 (native) -> h264 (libx264))
Press [q] to stop, [?] for help
[libx264 @ 0x5585d2dabb00] using SAR=1/1
[libx264 @ 0x5585d2dabb00] using cpu capabilities: MMX2 SSE2Fast SSSE3 SSE4.2 AVX FMA3 BMI2 AVX2 AVX512
[libx264 @ 0x5585d2dabb00] profile High, level 3.0
[libx264 @ 0x5585d2dabb00] 264 - core 155 r2917 0a84d98 - H.264/MPEG-4 AVC codec - Copyleft 2003-2018 - http://www.videolan.org/x264.html - options: cabac=1 ref=3 deblock=1:0:0 analyse=0x3:0x113 me=hex subme=7 psy=1 psy_rd=1.00:0.00 mixed_ref=1 me_range=16 chroma_me=1 trellis=1 8x8dct=1 cqm=0 deadzone=21,11 fast_pskip=1 chroma_qp_offset=-2 threads=3 lookahead_threads=1 sliced_threads=0 nr=0 decimate=1 interlaced=0 bluray_compat=0 constrained_intra=0 bframes=3 b_pyramid=2 b_adapt=1 b_bias=0 direct=1 weightb=1 open_gop=0 weightp=2 keyint=250 keyint_min=24 scenecut=40 intra_refresh=0 rc_lookahead=40 rc=crf mbtree=1 crf=20.0 qcomp=0.60 qpmin=0 qpmax=69 qpstep=4 ip_ratio=1.40 aq=1:1.00
Output #0, mp4, to '/home/yb1025/Research/GRAIL/relabeler-irl/accelerate-skillDiscovery/generalized-hindsight/rlkit/../data/None-None-test/None-None-test_2022_04_16_10_55_54_0000--s-1/epoch0_2.mp4':
  Metadata:
    major_brand     : isom
    minor_version   : 512
    compatible_brands: isomiso2mp41
    encoder         : Lavf58.29.100
    Stream #0:0(und): Video: h264 (libx264) (avc1 / 0x31637661), yuv420p, 500x500 [SAR 1:1 DAR 1:1], q=-1--1, 24 fps, 12288 tbn, 24 tbc (default)
    Metadata:
      handler_name    : VideoHandler
      encoder         : Lavc58.54.100 libx264
    Side data:
      cpb: bitrate max/min/avg: 0/0/0 buffer size: 0 vbv_delay: -1
frame=  205 fps=0.0 q=25.0 size=       0kB time=00:00:06.45 bitrate=   0.1kbits/s speed=12.8x    frame=  334 fps=0.0 q=-1.0 Lsize=     126kB time=00:00:13.79 bitrate=  75.0kbits/s speed=15.8x    
video:122kB audio:0kB subtitle:0kB other streams:0kB global headers:0kB muxing overhead: 3.894988%
[libx264 @ 0x5585d2dabb00] frame I:2     Avg QP:17.59  size: 33274
[libx264 @ 0x5585d2dabb00] frame P:84    Avg QP:21.51  size:   460
[libx264 @ 0x5585d2dabb00] frame B:248   Avg QP:25.85  size:    75
[libx264 @ 0x5585d2dabb00] consecutive B-frames:  0.9%  0.0%  0.9% 98.2%
[libx264 @ 0x5585d2dabb00] mb I  I16..4: 32.8% 15.9% 51.3%
[libx264 @ 0x5585d2dabb00] mb P  I16..4:  0.5%  0.1%  0.1%  P16..4:  2.5%  0.2%  0.2%  0.0%  0.0%    skip:96.4%
[libx264 @ 0x5585d2dabb00] mb B  I16..4:  0.8%  0.0%  0.0%  B16..8:  2.8%  0.1%  0.0%  direct: 0.0%  skip:96.2%  L0:61.3% L1:38.5% BI: 0.2%
[libx264 @ 0x5585d2dabb00] 8x8 transform intra:9.0% inter:72.3%
[libx264 @ 0x5585d2dabb00] coded y,uvDC,uvAC intra: 19.5% 42.9% 23.4% inter: 0.3% 0.5% 0.2%
[libx264 @ 0x5585d2dabb00] i16 v,h,dc,p: 32% 61%  7%  0%
[libx264 @ 0x5585d2dabb00] i8 v,h,dc,ddl,ddr,vr,hd,vl,hu: 25% 17% 41%  4%  2%  3%  1%  4%  3%
[libx264 @ 0x5585d2dabb00] i4 v,h,dc,ddl,ddr,vr,hd,vl,hu: 28% 43% 11%  2%  2%  5%  2%  5%  2%
[libx264 @ 0x5585d2dabb00] i8c dc,h,v,p: 36% 51% 11%  3%
[libx264 @ 0x5585d2dabb00] Weighted P-Frames: Y:0.0% UV:0.0%
[libx264 @ 0x5585d2dabb00] ref P L0: 77.2%  3.1% 16.1%  3.6%
[libx264 @ 0x5585d2dabb00] ref B L0: 59.9% 38.8%  1.3%
[libx264 @ 0x5585d2dabb00] ref B L1: 94.8%  5.2%
[libx264 @ 0x5585d2dabb00] kb/s:71.18
OpenCV: FFMPEG: tag 0x44495658/'XVID' is not supported with codec id 12 and format 'mp4 / MP4 (MPEG-4 Part 14)'
OpenCV: FFMPEG: fallback to use tag 0x7634706d/'mp4v'
ffmpeg version 4.2.4-1ubuntu0.1 Copyright (c) 2000-2020 the FFmpeg developers
  built with gcc 9 (Ubuntu 9.3.0-10ubuntu2)
  configuration: --prefix=/usr --extra-version=1ubuntu0.1 --toolchain=hardened --libdir=/usr/lib/x86_64-linux-gnu --incdir=/usr/include/x86_64-linux-gnu --arch=amd64 --enable-gpl --disable-stripping --enable-avresample --disable-filter=resample --enable-avisynth --enable-gnutls --enable-ladspa --enable-libaom --enable-libass --enable-libbluray --enable-libbs2b --enable-libcaca --enable-libcdio --enable-libcodec2 --enable-libflite --enable-libfontconfig --enable-libfreetype --enable-libfribidi --enable-libgme --enable-libgsm --enable-libjack --enable-libmp3lame --enable-libmysofa --enable-libopenjpeg --enable-libopenmpt --enable-libopus --enable-libpulse --enable-librsvg --enable-librubberband --enable-libshine --enable-libsnappy --enable-libsoxr --enable-libspeex --enable-libssh --enable-libtheora --enable-libtwolame --enable-libvidstab --enable-libvorbis --enable-libvpx --enable-libwavpack --enable-libwebp --enable-libx265 --enable-libxml2 --enable-libxvid --enable-libzmq --enable-libzvbi --enable-lv2 --enable-omx --enable-openal --enable-opencl --enable-opengl --enable-sdl2 --enable-libdc1394 --enable-libdrm --enable-libiec61883 --enable-nvenc --enable-chromaprint --enable-frei0r --enable-libx264 --enable-shared
  libavutil      56. 31.100 / 56. 31.100
  libavcodec     58. 54.100 / 58. 54.100
  libavformat    58. 29.100 / 58. 29.100
  libavdevice    58.  8.100 / 58.  8.100
  libavfilter     7. 57.100 /  7. 57.100
  libavresample   4.  0.  0 /  4.  0.  0
  libswscale      5.  5.100 /  5.  5.100
  libswresample   3.  5.100 /  3.  5.100
  libpostproc    55.  5.100 / 55.  5.100
Input #0, mov,mp4,m4a,3gp,3g2,mj2, from '/home/yb1025/Research/GRAIL/relabeler-irl/accelerate-skillDiscovery/generalized-hindsight/rlkit/../data/None-None-test/None-None-test_2022_04_16_10_55_54_0000--s-1/epoch0_3_temp.mp4':
  Metadata:
    major_brand     : isom
    minor_version   : 512
    compatible_brands: isomiso2mp41
    encoder         : Lavf58.76.100
  Duration: 00:00:13.92, start: 0.000000, bitrate: 989 kb/s
    Stream #0:0(und): Video: mpeg4 (Simple Profile) (mp4v / 0x7634706D), yuv420p, 500x500 [SAR 1:1 DAR 1:1], 988 kb/s, 24 fps, 24 tbr, 12288 tbn, 24 tbc (default)
    Metadata:
      handler_name    : VideoHandler
Stream mapping:
  Stream #0:0 -> #0:0 (mpeg4 (native) -> h264 (libx264))
Press [q] to stop, [?] for help
[libx264 @ 0x561fdceedb80] using SAR=1/1
[libx264 @ 0x561fdceedb80] using cpu capabilities: MMX2 SSE2Fast SSSE3 SSE4.2 AVX FMA3 BMI2 AVX2 AVX512
[libx264 @ 0x561fdceedb80] profile High, level 3.0
[libx264 @ 0x561fdceedb80] 264 - core 155 r2917 0a84d98 - H.264/MPEG-4 AVC codec - Copyleft 2003-2018 - http://www.videolan.org/x264.html - options: cabac=1 ref=3 deblock=1:0:0 analyse=0x3:0x113 me=hex subme=7 psy=1 psy_rd=1.00:0.00 mixed_ref=1 me_range=16 chroma_me=1 trellis=1 8x8dct=1 cqm=0 deadzone=21,11 fast_pskip=1 chroma_qp_offset=-2 threads=3 lookahead_threads=1 sliced_threads=0 nr=0 decimate=1 interlaced=0 bluray_compat=0 constrained_intra=0 bframes=3 b_pyramid=2 b_adapt=1 b_bias=0 direct=1 weightb=1 open_gop=0 weightp=2 keyint=250 keyint_min=24 scenecut=40 intra_refresh=0 rc_lookahead=40 rc=crf mbtree=1 crf=20.0 qcomp=0.60 qpmin=0 qpmax=69 qpstep=4 ip_ratio=1.40 aq=1:1.00
Output #0, mp4, to '/home/yb1025/Research/GRAIL/relabeler-irl/accelerate-skillDiscovery/generalized-hindsight/rlkit/../data/None-None-test/None-None-test_2022_04_16_10_55_54_0000--s-1/epoch0_3.mp4':
  Metadata:
    major_brand     : isom
    minor_version   : 512
    compatible_brands: isomiso2mp41
    encoder         : Lavf58.29.100
    Stream #0:0(und): Video: h264 (libx264) (avc1 / 0x31637661), yuv420p, 500x500 [SAR 1:1 DAR 1:1], q=-1--1, 24 fps, 12288 tbn, 24 tbc (default)
    Metadata:
      handler_name    : VideoHandler
      encoder         : Lavc58.54.100 libx264
    Side data:
      cpb: bitrate max/min/avg: 0/0/0 buffer size: 0 vbv_delay: -1
frame=  196 fps=0.0 q=25.0 size=       0kB time=00:00:06.08 bitrate=   0.1kbits/s speed=12.1x    frame=  334 fps=0.0 q=-1.0 Lsize=     130kB time=00:00:13.79 bitrate=  77.2kbits/s speed=15.2x    
video:125kB audio:0kB subtitle:0kB other streams:0kB global headers:0kB muxing overhead: 3.770053%
[libx264 @ 0x561fdceedb80] frame I:2     Avg QP:17.68  size: 33200
[libx264 @ 0x561fdceedb80] frame P:85    Avg QP:21.11  size:   503
[libx264 @ 0x561fdceedb80] frame B:247   Avg QP:26.02  size:    74
[libx264 @ 0x561fdceedb80] consecutive B-frames:  1.2%  0.0%  1.8% 97.0%
[libx264 @ 0x561fdceedb80] mb I  I16..4: 32.9% 15.9% 51.2%
[libx264 @ 0x561fdceedb80] mb P  I16..4:  0.5%  0.3%  0.1%  P16..4:  2.7%  0.2%  0.3%  0.0%  0.0%    skip:95.9%
[libx264 @ 0x561fdceedb80] mb B  I16..4:  0.7%  0.0%  0.0%  B16..8:  3.0%  0.1%  0.0%  direct: 0.0%  skip:96.2%  L0:64.8% L1:35.1% BI: 0.1%
[libx264 @ 0x561fdceedb80] 8x8 transform intra:15.0% inter:69.1%
[libx264 @ 0x561fdceedb80] coded y,uvDC,uvAC intra: 20.1% 44.7% 23.9% inter: 0.3% 0.6% 0.3%
[libx264 @ 0x561fdceedb80] i16 v,h,dc,p: 29% 64%  7%  0%
[libx264 @ 0x561fdceedb80] i8 v,h,dc,ddl,ddr,vr,hd,vl,hu: 16% 11% 62%  3%  1%  2%  1%  3%  2%
[libx264 @ 0x561fdceedb80] i4 v,h,dc,ddl,ddr,vr,hd,vl,hu: 28% 43% 11%  2%  3%  5%  2%  5%  2%
[libx264 @ 0x561fdceedb80] i8c dc,h,v,p: 31% 57%  9%  3%
[libx264 @ 0x561fdceedb80] Weighted P-Frames: Y:0.0% UV:0.0%
[libx264 @ 0x561fdceedb80] ref P L0: 81.0%  2.9% 12.4%  3.7%
[libx264 @ 0x561fdceedb80] ref B L0: 53.3% 45.5%  1.2%
[libx264 @ 0x561fdceedb80] ref B L1: 96.6%  3.4%
[libx264 @ 0x561fdceedb80] kb/s:73.31
OpenCV: FFMPEG: tag 0x44495658/'XVID' is not supported with codec id 12 and format 'mp4 / MP4 (MPEG-4 Part 14)'
OpenCV: FFMPEG: fallback to use tag 0x7634706d/'mp4v'
ffmpeg version 4.2.4-1ubuntu0.1 Copyright (c) 2000-2020 the FFmpeg developers
  built with gcc 9 (Ubuntu 9.3.0-10ubuntu2)
  configuration: --prefix=/usr --extra-version=1ubuntu0.1 --toolchain=hardened --libdir=/usr/lib/x86_64-linux-gnu --incdir=/usr/include/x86_64-linux-gnu --arch=amd64 --enable-gpl --disable-stripping --enable-avresample --disable-filter=resample --enable-avisynth --enable-gnutls --enable-ladspa --enable-libaom --enable-libass --enable-libbluray --enable-libbs2b --enable-libcaca --enable-libcdio --enable-libcodec2 --enable-libflite --enable-libfontconfig --enable-libfreetype --enable-libfribidi --enable-libgme --enable-libgsm --enable-libjack --enable-libmp3lame --enable-libmysofa --enable-libopenjpeg --enable-libopenmpt --enable-libopus --enable-libpulse --enable-librsvg --enable-librubberband --enable-libshine --enable-libsnappy --enable-libsoxr --enable-libspeex --enable-libssh --enable-libtheora --enable-libtwolame --enable-libvidstab --enable-libvorbis --enable-libvpx --enable-libwavpack --enable-libwebp --enable-libx265 --enable-libxml2 --enable-libxvid --enable-libzmq --enable-libzvbi --enable-lv2 --enable-omx --enable-openal --enable-opencl --enable-opengl --enable-sdl2 --enable-libdc1394 --enable-libdrm --enable-libiec61883 --enable-nvenc --enable-chromaprint --enable-frei0r --enable-libx264 --enable-shared
  libavutil      56. 31.100 / 56. 31.100
  libavcodec     58. 54.100 / 58. 54.100
  libavformat    58. 29.100 / 58. 29.100
  libavdevice    58.  8.100 / 58.  8.100
  libavfilter     7. 57.100 /  7. 57.100
  libavresample   4.  0.  0 /  4.  0.  0
  libswscale      5.  5.100 /  5.  5.100
  libswresample   3.  5.100 /  3.  5.100
  libpostproc    55.  5.100 / 55.  5.100
Input #0, mov,mp4,m4a,3gp,3g2,mj2, from '/home/yb1025/Research/GRAIL/relabeler-irl/accelerate-skillDiscovery/generalized-hindsight/rlkit/../data/None-None-test/None-None-test_2022_04_16_10_55_54_0000--s-1/epoch0_4_temp.mp4':
  Metadata:
    major_brand     : isom
    minor_version   : 512
    compatible_brands: isomiso2mp41
    encoder         : Lavf58.76.100
  Duration: 00:00:13.92, start: 0.000000, bitrate: 988 kb/s
    Stream #0:0(und): Video: mpeg4 (Simple Profile) (mp4v / 0x7634706D), yuv420p, 500x500 [SAR 1:1 DAR 1:1], 987 kb/s, 24 fps, 24 tbr, 12288 tbn, 24 tbc (default)
    Metadata:
      handler_name    : VideoHandler
Stream mapping:
  Stream #0:0 -> #0:0 (mpeg4 (native) -> h264 (libx264))
Press [q] to stop, [?] for help
[libx264 @ 0x56307762ba40] using SAR=1/1
[libx264 @ 0x56307762ba40] using cpu capabilities: MMX2 SSE2Fast SSSE3 SSE4.2 AVX FMA3 BMI2 AVX2 AVX512
[libx264 @ 0x56307762ba40] profile High, level 3.0
[libx264 @ 0x56307762ba40] 264 - core 155 r2917 0a84d98 - H.264/MPEG-4 AVC codec - Copyleft 2003-2018 - http://www.videolan.org/x264.html - options: cabac=1 ref=3 deblock=1:0:0 analyse=0x3:0x113 me=hex subme=7 psy=1 psy_rd=1.00:0.00 mixed_ref=1 me_range=16 chroma_me=1 trellis=1 8x8dct=1 cqm=0 deadzone=21,11 fast_pskip=1 chroma_qp_offset=-2 threads=3 lookahead_threads=1 sliced_threads=0 nr=0 decimate=1 interlaced=0 bluray_compat=0 constrained_intra=0 bframes=3 b_pyramid=2 b_adapt=1 b_bias=0 direct=1 weightb=1 open_gop=0 weightp=2 keyint=250 keyint_min=24 scenecut=40 intra_refresh=0 rc_lookahead=40 rc=crf mbtree=1 crf=20.0 qcomp=0.60 qpmin=0 qpmax=69 qpstep=4 ip_ratio=1.40 aq=1:1.00
Output #0, mp4, to '/home/yb1025/Research/GRAIL/relabeler-irl/accelerate-skillDiscovery/generalized-hindsight/rlkit/../data/None-None-test/None-None-test_2022_04_16_10_55_54_0000--s-1/epoch0_4.mp4':
  Metadata:
    major_brand     : isom
    minor_version   : 512
    compatible_brands: isomiso2mp41
    encoder         : Lavf58.29.100
    Stream #0:0(und): Video: h264 (libx264) (avc1 / 0x31637661), yuv420p, 500x500 [SAR 1:1 DAR 1:1], q=-1--1, 24 fps, 12288 tbn, 24 tbc (default)
    Metadata:
      handler_name    : VideoHandler
      encoder         : Lavc58.54.100 libx264
    Side data:
      cpb: bitrate max/min/avg: 0/0/0 buffer size: 0 vbv_delay: -1
frame=  200 fps=0.0 q=25.0 size=       0kB time=00:00:06.25 bitrate=   0.1kbits/s speed=12.4x    frame=  334 fps=0.0 q=-1.0 Lsize=     134kB time=00:00:13.79 bitrate=  79.6kbits/s speed=15.2x    
video:129kB audio:0kB subtitle:0kB other streams:0kB global headers:0kB muxing overhead: 3.664609%
[libx264 @ 0x56307762ba40] frame I:2     Avg QP:17.62  size: 33348
[libx264 @ 0x56307762ba40] frame P:84    Avg QP:22.03  size:   482
[libx264 @ 0x56307762ba40] frame B:248   Avg QP:27.58  size:    99
[libx264 @ 0x56307762ba40] consecutive B-frames:  0.9%  0.0%  0.9% 98.2%
[libx264 @ 0x56307762ba40] mb I  I16..4: 32.7% 15.8% 51.5%
[libx264 @ 0x56307762ba40] mb P  I16..4:  0.8%  0.5%  0.1%  P16..4:  2.7%  0.2%  0.2%  0.0%  0.0%    skip:95.4%
[libx264 @ 0x56307762ba40] mb B  I16..4:  0.8%  0.5%  0.0%  B16..8:  3.5%  0.1%  0.0%  direct: 0.0%  skip:95.1%  L0:60.2% L1:39.6% BI: 0.2%
[libx264 @ 0x56307762ba40] 8x8 transform intra:29.6% inter:71.4%
[libx264 @ 0x56307762ba40] coded y,uvDC,uvAC intra: 13.9% 36.4% 17.5% inter: 0.3% 0.5% 0.2%
[libx264 @ 0x56307762ba40] i16 v,h,dc,p: 18% 77%  5%  0%
[libx264 @ 0x56307762ba40] i8 v,h,dc,ddl,ddr,vr,hd,vl,hu:  6%  4% 87%  1%  0%  1%  0%  1%  1%
[libx264 @ 0x56307762ba40] i4 v,h,dc,ddl,ddr,vr,hd,vl,hu: 28% 43% 11%  2%  2%  5%  2%  5%  2%
[libx264 @ 0x56307762ba40] i8c dc,h,v,p: 30% 59%  9%  2%
[libx264 @ 0x56307762ba40] Weighted P-Frames: Y:0.0% UV:0.0%
[libx264 @ 0x56307762ba40] ref P L0: 75.1%  2.5% 18.7%  3.8%
[libx264 @ 0x56307762ba40] ref B L0: 60.0% 38.9%  1.1%
[libx264 @ 0x56307762ba40] ref B L1: 96.1%  3.9%
[libx264 @ 0x56307762ba40] kb/s:75.68
OpenCV: FFMPEG: tag 0x44495658/'XVID' is not supported with codec id 12 and format 'mp4 / MP4 (MPEG-4 Part 14)'
OpenCV: FFMPEG: fallback to use tag 0x7634706d/'mp4v'
ffmpeg version 4.2.4-1ubuntu0.1 Copyright (c) 2000-2020 the FFmpeg developers
  built with gcc 9 (Ubuntu 9.3.0-10ubuntu2)
  configuration: --prefix=/usr --extra-version=1ubuntu0.1 --toolchain=hardened --libdir=/usr/lib/x86_64-linux-gnu --incdir=/usr/include/x86_64-linux-gnu --arch=amd64 --enable-gpl --disable-stripping --enable-avresample --disable-filter=resample --enable-avisynth --enable-gnutls --enable-ladspa --enable-libaom --enable-libass --enable-libbluray --enable-libbs2b --enable-libcaca --enable-libcdio --enable-libcodec2 --enable-libflite --enable-libfontconfig --enable-libfreetype --enable-libfribidi --enable-libgme --enable-libgsm --enable-libjack --enable-libmp3lame --enable-libmysofa --enable-libopenjpeg --enable-libopenmpt --enable-libopus --enable-libpulse --enable-librsvg --enable-librubberband --enable-libshine --enable-libsnappy --enable-libsoxr --enable-libspeex --enable-libssh --enable-libtheora --enable-libtwolame --enable-libvidstab --enable-libvorbis --enable-libvpx --enable-libwavpack --enable-libwebp --enable-libx265 --enable-libxml2 --enable-libxvid --enable-libzmq --enable-libzvbi --enable-lv2 --enable-omx --enable-openal --enable-opencl --enable-opengl --enable-sdl2 --enable-libdc1394 --enable-libdrm --enable-libiec61883 --enable-nvenc --enable-chromaprint --enable-frei0r --enable-libx264 --enable-shared
  libavutil      56. 31.100 / 56. 31.100
  libavcodec     58. 54.100 / 58. 54.100
  libavformat    58. 29.100 / 58. 29.100
  libavdevice    58.  8.100 / 58.  8.100
  libavfilter     7. 57.100 /  7. 57.100
  libavresample   4.  0.  0 /  4.  0.  0
  libswscale      5.  5.100 /  5.  5.100
  libswresample   3.  5.100 /  3.  5.100
  libpostproc    55.  5.100 / 55.  5.100
Input #0, mov,mp4,m4a,3gp,3g2,mj2, from '/home/yb1025/Research/GRAIL/relabeler-irl/accelerate-skillDiscovery/generalized-hindsight/rlkit/../data/None-None-test/None-None-test_2022_04_16_10_55_54_0000--s-1/epoch0_5_temp.mp4':
  Metadata:
    major_brand     : isom
    minor_version   : 512
    compatible_brands: isomiso2mp41
    encoder         : Lavf58.76.100
  Duration: 00:00:13.92, start: 0.000000, bitrate: 993 kb/s
    Stream #0:0(und): Video: mpeg4 (Simple Profile) (mp4v / 0x7634706D), yuv420p, 500x500 [SAR 1:1 DAR 1:1], 992 kb/s, 24 fps, 24 tbr, 12288 tbn, 24 tbc (default)
    Metadata:
      handler_name    : VideoHandler
Stream mapping:
  Stream #0:0 -> #0:0 (mpeg4 (native) -> h264 (libx264))
Press [q] to stop, [?] for help
[libx264 @ 0x56125a3caa00] using SAR=1/1
[libx264 @ 0x56125a3caa00] using cpu capabilities: MMX2 SSE2Fast SSSE3 SSE4.2 AVX FMA3 BMI2 AVX2 AVX512
[libx264 @ 0x56125a3caa00] profile High, level 3.0
[libx264 @ 0x56125a3caa00] 264 - core 155 r2917 0a84d98 - H.264/MPEG-4 AVC codec - Copyleft 2003-2018 - http://www.videolan.org/x264.html - options: cabac=1 ref=3 deblock=1:0:0 analyse=0x3:0x113 me=hex subme=7 psy=1 psy_rd=1.00:0.00 mixed_ref=1 me_range=16 chroma_me=1 trellis=1 8x8dct=1 cqm=0 deadzone=21,11 fast_pskip=1 chroma_qp_offset=-2 threads=3 lookahead_threads=1 sliced_threads=0 nr=0 decimate=1 interlaced=0 bluray_compat=0 constrained_intra=0 bframes=3 b_pyramid=2 b_adapt=1 b_bias=0 direct=1 weightb=1 open_gop=0 weightp=2 keyint=250 keyint_min=24 scenecut=40 intra_refresh=0 rc_lookahead=40 rc=crf mbtree=1 crf=20.0 qcomp=0.60 qpmin=0 qpmax=69 qpstep=4 ip_ratio=1.40 aq=1:1.00
Output #0, mp4, to '/home/yb1025/Research/GRAIL/relabeler-irl/accelerate-skillDiscovery/generalized-hindsight/rlkit/../data/None-None-test/None-None-test_2022_04_16_10_55_54_0000--s-1/epoch0_5.mp4':
  Metadata:
    major_brand     : isom
    minor_version   : 512
    compatible_brands: isomiso2mp41
    encoder         : Lavf58.29.100
    Stream #0:0(und): Video: h264 (libx264) (avc1 / 0x31637661), yuv420p, 500x500 [SAR 1:1 DAR 1:1], q=-1--1, 24 fps, 12288 tbn, 24 tbc (default)
    Metadata:
      handler_name    : VideoHandler
      encoder         : Lavc58.54.100 libx264
    Side data:
      cpb: bitrate max/min/avg: 0/0/0 buffer size: 0 vbv_delay: -1
frame=  199 fps=0.0 q=25.0 size=       0kB time=00:00:06.20 bitrate=   0.1kbits/s speed=12.3x    frame=  334 fps=0.0 q=-1.0 Lsize=     135kB time=00:00:13.79 bitrate=  80.1kbits/s speed=14.7x    
video:130kB audio:0kB subtitle:0kB other streams:0kB global headers:0kB muxing overhead: 3.641633%
[libx264 @ 0x56125a3caa00] frame I:2     Avg QP:17.59  size: 33186
[libx264 @ 0x56125a3caa00] frame P:84    Avg QP:22.37  size:   500
[libx264 @ 0x56125a3caa00] frame B:248   Avg QP:25.90  size:    97
[libx264 @ 0x56125a3caa00] consecutive B-frames:  0.9%  0.0%  0.9% 98.2%
[libx264 @ 0x56125a3caa00] mb I  I16..4: 33.0% 15.6% 51.4%
[libx264 @ 0x56125a3caa00] mb P  I16..4:  0.7%  1.4%  0.1%  P16..4:  3.3%  0.3%  0.2%  0.0%  0.0%    skip:94.0%
[libx264 @ 0x56125a3caa00] mb B  I16..4:  0.9%  0.0%  0.0%  B16..8:  4.8%  0.1%  0.0%  direct: 0.1%  skip:94.2%  L0:65.1% L1:34.7% BI: 0.2%
[libx264 @ 0x56125a3caa00] 8x8 transform intra:25.1% inter:69.4%
[libx264 @ 0x56125a3caa00] coded y,uvDC,uvAC intra: 15.1% 37.0% 17.9% inter: 0.3% 0.6% 0.3%
[libx264 @ 0x56125a3caa00] i16 v,h,dc,p: 30% 62%  8%  0%
[libx264 @ 0x56125a3caa00] i8 v,h,dc,ddl,ddr,vr,hd,vl,hu:  6%  7% 82%  1%  1%  1%  0%  1%  1%
[libx264 @ 0x56125a3caa00] i4 v,h,dc,ddl,ddr,vr,hd,vl,hu: 28% 42% 10%  3%  2%  5%  2%  5%  2%
[libx264 @ 0x56125a3caa00] i8c dc,h,v,p: 43% 44% 11%  2%
[libx264 @ 0x56125a3caa00] Weighted P-Frames: Y:0.0% UV:0.0%
[libx264 @ 0x56125a3caa00] ref P L0: 57.1%  2.1% 37.9%  2.9%
[libx264 @ 0x56125a3caa00] ref B L0: 52.5% 46.8%  0.6%
[libx264 @ 0x56125a3caa00] ref B L1: 96.4%  3.6%
[libx264 @ 0x56125a3caa00] kb/s:76.16
OpenCV: FFMPEG: tag 0x44495658/'XVID' is not supported with codec id 12 and format 'mp4 / MP4 (MPEG-4 Part 14)'
OpenCV: FFMPEG: fallback to use tag 0x7634706d/'mp4v'
ffmpeg version 4.2.4-1ubuntu0.1 Copyright (c) 2000-2020 the FFmpeg developers
  built with gcc 9 (Ubuntu 9.3.0-10ubuntu2)
  configuration: --prefix=/usr --extra-version=1ubuntu0.1 --toolchain=hardened --libdir=/usr/lib/x86_64-linux-gnu --incdir=/usr/include/x86_64-linux-gnu --arch=amd64 --enable-gpl --disable-stripping --enable-avresample --disable-filter=resample --enable-avisynth --enable-gnutls --enable-ladspa --enable-libaom --enable-libass --enable-libbluray --enable-libbs2b --enable-libcaca --enable-libcdio --enable-libcodec2 --enable-libflite --enable-libfontconfig --enable-libfreetype --enable-libfribidi --enable-libgme --enable-libgsm --enable-libjack --enable-libmp3lame --enable-libmysofa --enable-libopenjpeg --enable-libopenmpt --enable-libopus --enable-libpulse --enable-librsvg --enable-librubberband --enable-libshine --enable-libsnappy --enable-libsoxr --enable-libspeex --enable-libssh --enable-libtheora --enable-libtwolame --enable-libvidstab --enable-libvorbis --enable-libvpx --enable-libwavpack --enable-libwebp --enable-libx265 --enable-libxml2 --enable-libxvid --enable-libzmq --enable-libzvbi --enable-lv2 --enable-omx --enable-openal --enable-opencl --enable-opengl --enable-sdl2 --enable-libdc1394 --enable-libdrm --enable-libiec61883 --enable-nvenc --enable-chromaprint --enable-frei0r --enable-libx264 --enable-shared
  libavutil      56. 31.100 / 56. 31.100
  libavcodec     58. 54.100 / 58. 54.100
  libavformat    58. 29.100 / 58. 29.100
  libavdevice    58.  8.100 / 58.  8.100
  libavfilter     7. 57.100 /  7. 57.100
  libavresample   4.  0.  0 /  4.  0.  0
  libswscale      5.  5.100 /  5.  5.100
  libswresample   3.  5.100 /  3.  5.100
  libpostproc    55.  5.100 / 55.  5.100
Input #0, mov,mp4,m4a,3gp,3g2,mj2, from '/home/yb1025/Research/GRAIL/relabeler-irl/accelerate-skillDiscovery/generalized-hindsight/rlkit/../data/None-None-test/None-None-test_2022_04_16_10_55_54_0000--s-1/epoch0_6_temp.mp4':
  Metadata:
    major_brand     : isom
    minor_version   : 512
    compatible_brands: isomiso2mp41
    encoder         : Lavf58.76.100
  Duration: 00:00:13.92, start: 0.000000, bitrate: 990 kb/s
    Stream #0:0(und): Video: mpeg4 (Simple Profile) (mp4v / 0x7634706D), yuv420p, 500x500 [SAR 1:1 DAR 1:1], 988 kb/s, 24 fps, 24 tbr, 12288 tbn, 24 tbc (default)
    Metadata:
      handler_name    : VideoHandler
Stream mapping:
  Stream #0:0 -> #0:0 (mpeg4 (native) -> h264 (libx264))
Press [q] to stop, [?] for help
[libx264 @ 0x5608a0422a80] using SAR=1/1
[libx264 @ 0x5608a0422a80] using cpu capabilities: MMX2 SSE2Fast SSSE3 SSE4.2 AVX FMA3 BMI2 AVX2 AVX512
[libx264 @ 0x5608a0422a80] profile High, level 3.0
[libx264 @ 0x5608a0422a80] 264 - core 155 r2917 0a84d98 - H.264/MPEG-4 AVC codec - Copyleft 2003-2018 - http://www.videolan.org/x264.html - options: cabac=1 ref=3 deblock=1:0:0 analyse=0x3:0x113 me=hex subme=7 psy=1 psy_rd=1.00:0.00 mixed_ref=1 me_range=16 chroma_me=1 trellis=1 8x8dct=1 cqm=0 deadzone=21,11 fast_pskip=1 chroma_qp_offset=-2 threads=3 lookahead_threads=1 sliced_threads=0 nr=0 decimate=1 interlaced=0 bluray_compat=0 constrained_intra=0 bframes=3 b_pyramid=2 b_adapt=1 b_bias=0 direct=1 weightb=1 open_gop=0 weightp=2 keyint=250 keyint_min=24 scenecut=40 intra_refresh=0 rc_lookahead=40 rc=crf mbtree=1 crf=20.0 qcomp=0.60 qpmin=0 qpmax=69 qpstep=4 ip_ratio=1.40 aq=1:1.00
Output #0, mp4, to '/home/yb1025/Research/GRAIL/relabeler-irl/accelerate-skillDiscovery/generalized-hindsight/rlkit/../data/None-None-test/None-None-test_2022_04_16_10_55_54_0000--s-1/epoch0_6.mp4':
  Metadata:
    major_brand     : isom
    minor_version   : 512
    compatible_brands: isomiso2mp41
    encoder         : Lavf58.29.100
    Stream #0:0(und): Video: h264 (libx264) (avc1 / 0x31637661), yuv420p, 500x500 [SAR 1:1 DAR 1:1], q=-1--1, 24 fps, 12288 tbn, 24 tbc (default)
    Metadata:
      handler_name    : VideoHandler
      encoder         : Lavc58.54.100 libx264
    Side data:
      cpb: bitrate max/min/avg: 0/0/0 buffer size: 0 vbv_delay: -1
frame=  196 fps=0.0 q=25.0 size=       0kB time=00:00:06.08 bitrate=   0.1kbits/s speed=12.2x    frame=  334 fps=0.0 q=-1.0 Lsize=     131kB time=00:00:13.79 bitrate=  78.0kbits/s speed=14.8x    
video:127kB audio:0kB subtitle:0kB other streams:0kB global headers:0kB muxing overhead: 3.741591%
[libx264 @ 0x5608a0422a80] frame I:2     Avg QP:17.52  size: 33490
[libx264 @ 0x5608a0422a80] frame P:84    Avg QP:21.73  size:   485
[libx264 @ 0x5608a0422a80] frame B:248   Avg QP:25.85  size:    86
[libx264 @ 0x5608a0422a80] consecutive B-frames:  0.9%  0.0%  0.9% 98.2%
[libx264 @ 0x5608a0422a80] mb I  I16..4: 33.0% 15.8% 51.3%
[libx264 @ 0x5608a0422a80] mb P  I16..4:  0.6%  1.3%  0.1%  P16..4:  3.4%  0.2%  0.2%  0.0%  0.0%    skip:94.2%
[libx264 @ 0x5608a0422a80] mb B  I16..4:  0.9%  0.0%  0.0%  B16..8:  3.7%  0.1%  0.0%  direct: 0.0%  skip:95.3%  L0:62.7% L1:37.0% BI: 0.2%
[libx264 @ 0x5608a0422a80] 8x8 transform intra:25.5% inter:72.6%
[libx264 @ 0x5608a0422a80] coded y,uvDC,uvAC intra: 15.6% 35.7% 18.7% inter: 0.3% 0.6% 0.3%
[libx264 @ 0x5608a0422a80] i16 v,h,dc,p: 27% 67%  6%  0%
[libx264 @ 0x5608a0422a80] i8 v,h,dc,ddl,ddr,vr,hd,vl,hu:  7%  9% 79%  1%  1%  1%  0%  1%  1%
[libx264 @ 0x5608a0422a80] i4 v,h,dc,ddl,ddr,vr,hd,vl,hu: 28% 43% 11%  2%  2%  5%  2%  5%  2%
[libx264 @ 0x5608a0422a80] i8c dc,h,v,p: 41% 48%  8%  2%
[libx264 @ 0x5608a0422a80] Weighted P-Frames: Y:0.0% UV:0.0%
[libx264 @ 0x5608a0422a80] ref P L0: 64.4%  2.2% 29.9%  3.5%
[libx264 @ 0x5608a0422a80] ref B L0: 54.3% 44.6%  1.1%
[libx264 @ 0x5608a0422a80] ref B L1: 94.7%  5.3%
[libx264 @ 0x5608a0422a80] kb/s:74.12
